<svg id="logo_copy_3" data-name="logo copy 3" xmlns="http://www.w3.org/2000/svg" width="83" height="29" viewBox="0 0 83 29">
  <g id="Group">
    <path id="Path" d="M3.818,0A3.26,3.26,0,0,0,1.052,1.48L1.009.194H0L.01.321C.059.962.079,1.528.079,2.339V8.892H1.133V3.538a3.274,3.274,0,0,1,.1-.724A2.534,2.534,0,0,1,3.594.959c1.888,0,2.17,1.76,2.17,2.809V8.892H6.819V3.7C6.819.178,4.319,0,3.818,0Z" transform="translate(41.414 10.192)" fill="#333"/>
    <g id="Group_3_Copy_10" data-name="Group 3 Copy 10">
      <g id="Group-2" data-name="Group">
        <g id="Group_2" data-name="Group 2">
          <path id="Fill_3" data-name="Fill 3" d="M15.717,4.657l0,0L7.859,9.316v0h0L0,4.659,7.859,0Z" transform="translate(0.256)" fill="#333"/>
          <path id="Fill_4" data-name="Fill 4" d="M7.606,4.506,0,9.013V0Z" transform="translate(8.368 19.987)" fill="#333"/>
          <path id="Fill_5" data-name="Fill 5" d="M0,19.231V0L24.6,14.574v9.314L7.86,13.971v9.917Z" transform="translate(0 5.112)" fill="#333"/>
          <path id="Fill_6" data-name="Fill 6" d="M7.6,9.011,0,4.506,7.6,0Z" transform="translate(16.996 0.152)" fill="#333"/>
          <path id="Fill_7" data-name="Fill 7" d="M24.345,4.657V24.191l-7.86,4.657V19.231L0,9.464,7.86,4.807h0l8.622,5.11V0Z" transform="translate(8.624 0.152)" fill="#333"/>
        </g>
      </g>
    </g>
    <path id="Shape" d="M2.538,9.085A2.386,2.386,0,0,1,0,6.64,2.7,2.7,0,0,1,.767,4.677C1.588,3.842,3.013,3.419,5,3.419h.032V3.308a2.567,2.567,0,0,0-.577-1.87,1.867,1.867,0,0,0-1.39-.5h-.03a3.419,3.419,0,0,0-2.013.613L.907,1.64.556.8.636.742A4.594,4.594,0,0,1,3.121,0C5.062,0,6.088,1.193,6.088,3.45V6.764a13.1,13.1,0,0,0,.119,1.991l.023.137h-1l-.1-1.057A3.252,3.252,0,0,1,2.538,9.085Zm2.225-4.73a4.5,4.5,0,0,0-3.176.866,1.733,1.733,0,0,0-.5,1.279A1.476,1.476,0,0,0,2.623,8.145a2.357,2.357,0,0,0,2.33-1.613,1.3,1.3,0,0,0,.079-.473v-1.7C4.951,4.356,4.865,4.355,4.763,4.355Z" transform="translate(49.29 10.192)" fill="#333"/>
    <path id="Shape-2" data-name="Shape" d="M3.448,12.577a4.625,4.625,0,0,1-2.7-.765l-.073-.057.384-.88.113.075a4.25,4.25,0,0,0,2.394.686c1.907,0,2.874-1.111,2.874-3.3V7.505A3.251,3.251,0,0,1,3.653,8.892C1.57,8.892,0,7.053,0,4.613,0,1.585,1.925,0,3.826,0A3.08,3.08,0,0,1,6.54,1.386L6.583.194h.992L7.564.322C7.517.917,7.5,1.567,7.5,2.5V7.539c0,1.977-.361,3.211-1.169,4A4.23,4.23,0,0,1,3.448,12.577ZM3.894.941c-1.7,0-2.839,1.44-2.839,3.584,0,1.58.735,3.425,2.805,3.425A2.588,2.588,0,0,0,6.311,6.125a3.006,3.006,0,0,0,.13-.859V3.574a2.383,2.383,0,0,0-.1-.789A2.53,2.53,0,0,0,3.894.941Z" transform="translate(56.435 10.192)" fill="#333"/>
    <path id="Path-2" data-name="Path" d="M9.443,4.876c-.288.9-.509,1.628-.67,2.29-.2-.717-.429-1.477-.709-2.309L6.457,0H5.52L3.843,4.892c-.257.767-.521,1.566-.726,2.289-.153-.619-.333-1.264-.536-1.991L1.107.085,1.083,0H0L2.588,8.614l.025.083H3.5L5.159,3.931c.351-.989.6-1.791.8-2.542.2.8.458,1.6.769,2.522L8.319,8.7h.87L12.013,0H10.927Z" transform="translate(64.742 10.386)" fill="#333"/>
    <path id="Shape-3" data-name="Shape" d="M2.538,9.085A2.386,2.386,0,0,1,0,6.64,2.7,2.7,0,0,1,.767,4.677C1.588,3.842,3.013,3.419,5,3.419h.032V3.308a2.567,2.567,0,0,0-.577-1.87,1.867,1.867,0,0,0-1.39-.5h-.03a3.419,3.419,0,0,0-2.013.613L.907,1.64.556.8.636.742A4.594,4.594,0,0,1,3.121,0C5.062,0,6.088,1.193,6.088,3.45V6.764a13.1,13.1,0,0,0,.119,1.991l.023.137h-1l-.1-1.057A3.252,3.252,0,0,1,2.538,9.085Zm2.225-4.73a4.5,4.5,0,0,0-3.176.866,1.733,1.733,0,0,0-.5,1.279A1.476,1.476,0,0,0,2.623,8.145a2.357,2.357,0,0,0,2.33-1.613,1.3,1.3,0,0,0,.079-.473v-1.7C4.951,4.356,4.865,4.355,4.763,4.355Z" transform="translate(76.771 10.192)" fill="#333"/>
  </g>
</svg>
